<mxfile host="65bd71144e">
    <diagram id="PeegEzZx6cyWjPbdDe3O" name="Page-1">
        <mxGraphModel dx="502" dy="239" grid="1" gridSize="10" guides="1" tooltips="1" connect="1" arrows="1" fold="1" page="1" pageScale="1" pageWidth="1100" pageHeight="850" math="0" shadow="0">
            <root>
                <mxCell id="0"/>
                <mxCell id="1" parent="0"/>
                <mxCell id="2" value="1 Determinar un Inventario de Componentes de las mallas de batch de cobol&lt;div&gt;&lt;font color=&quot;#000000&quot;&gt;&lt;span style=&quot;white-space: pre;&quot;&gt;&#x9;&lt;/span&gt;- Metodos un Program&lt;/font&gt;&lt;/div&gt;&lt;div&gt;&lt;font color=&quot;#000000&quot;&gt;&lt;span style=&quot;white-space: pre;&quot;&gt;&#x9;&lt;/span&gt;- Copys&lt;/font&gt;&lt;/div&gt;&lt;div&gt;&lt;font color=&quot;#000000&quot;&gt;&lt;span style=&quot;white-space: pre;&quot;&gt;&#x9;&lt;/span&gt;- CICS&lt;/font&gt;&lt;/div&gt;&lt;div&gt;&lt;font color=&quot;#000000&quot;&gt;&lt;span style=&quot;white-space: pre;&quot;&gt;&#x9;&lt;/span&gt;- SQL&lt;br&gt;&lt;/font&gt;&lt;div&gt;2 Determinar componentes comunes / reusables&lt;/div&gt;&lt;div&gt;&lt;span style=&quot;white-space: pre;&quot;&gt;&#x9;&lt;/span&gt;&lt;br&gt;&lt;/div&gt;&lt;div&gt;3 Complejidad de codigo.&amp;nbsp;&lt;/div&gt;&lt;div&gt;4 Determinar que componentes no fueron entregados.&lt;/div&gt;&lt;div&gt;5 Genarar un informe.&amp;nbsp;&lt;/div&gt;&lt;div&gt;&lt;br&gt;&lt;/div&gt;&lt;/div&gt;" style="text;html=1;align=left;verticalAlign=top;whiteSpace=wrap;rounded=0;" vertex="1" parent="1">
                    <mxGeometry x="30" y="10" width="470" height="180" as="geometry"/>
                </mxCell>
                <mxCell id="3" value="GenAI - LLM" style="text;html=1;align=left;verticalAlign=middle;whiteSpace=wrap;rounded=0;" vertex="1" parent="1">
                    <mxGeometry x="40" y="220" width="240" height="30" as="geometry"/>
                </mxCell>
                <mxCell id="4" value="Compilador ( Analizador Lexico / &lt;b&gt;Sintactico&lt;/b&gt; )&amp;nbsp;" style="text;html=1;align=left;verticalAlign=middle;whiteSpace=wrap;rounded=0;" vertex="1" parent="1">
                    <mxGeometry x="40" y="260" width="290" height="30" as="geometry"/>
                </mxCell>
                <mxCell id="5" value="GenAI + AST" style="text;html=1;align=left;verticalAlign=middle;whiteSpace=wrap;rounded=0;" vertex="1" parent="1">
                    <mxGeometry x="40" y="240" width="110" height="30" as="geometry"/>
                </mxCell>
                <mxCell id="6" value="" style="shape=flexArrow;endArrow=classic;html=1;" edge="1" parent="1">
                    <mxGeometry width="50" height="50" relative="1" as="geometry">
                        <mxPoint x="380" y="90" as="sourcePoint"/>
                        <mxPoint x="380" y="200" as="targetPoint"/>
                    </mxGeometry>
                </mxCell>
                <mxCell id="7" value="Restricciones:&lt;div&gt;&lt;br&gt;&lt;/div&gt;&lt;div&gt;1 No puede salir el codigo de los ambientes de banco.&lt;/div&gt;&lt;div&gt;2 Tiene que ligero.&lt;/div&gt;&lt;div&gt;3 No debe ser complejo aplicarlo&lt;/div&gt;&lt;div&gt;4 De ser posible debe correr con mini dependencias.&lt;/div&gt;&lt;div&gt;5 De ser posible tiene que ser un agente que no se instale los equipos, si no que se standalone&amp;nbsp;&lt;/div&gt;&lt;div&gt;6 De preferencia sea offline / instalarse en mainframe&lt;/div&gt;" style="text;html=1;align=left;verticalAlign=top;whiteSpace=wrap;rounded=0;" vertex="1" parent="1">
                    <mxGeometry x="370" y="210" width="330" height="160" as="geometry"/>
                </mxCell>
                <mxCell id="8" value="ANTLR + NEO4J" style="text;html=1;align=left;verticalAlign=middle;whiteSpace=wrap;rounded=0;" vertex="1" parent="1">
                    <mxGeometry x="40" y="400" width="100" height="30" as="geometry"/>
                </mxCell>
            </root>
        </mxGraphModel>
    </diagram>
</mxfile>